# xmcd
#
# Track frame offsets:
#	150
#	18852
#	34382
#	53942
#	73382
#	97705
#	117580
#	133852
#	150212
#	171967
#	190017
#	210895
#	238057
#	256370
#	270892
#	288110
#	307815
#	323357
#
# Disc length: 4560 seconds
#
# Revision: 1
# Processed by: cddbd v1.5.1PL2 Copyright (c) Steve Scherf et al.
# Submitted via: audiograbber 1.82.01
#
DISCID=e911ce12
DTITLE=Various Artist - вяусес лпакамтес 3
DYEAR=1900
DGENRE=
TTITLE0=Michael Jackson - I just can' t stop loving you
TTITLE1=Mariah Carey - Open arms
TTITLE2=3T - Anything
TTITLE3=Oasis - Wonderwall
TTITLE4=Meatloaf - I' l die for you
TTITLE5=Bruce Springstreen - Secret garden
TTITLE6=Chris de Burgh - Missing you
TTITLE7=Color me badd - The earth the sun the rain
TTITLE8=Gloria Estefan - Always tomorrow
TTITLE9=Simon and Garfunkel - The boxer
TTITLE10=Rod Stewart - You' re the star
TTITLE11=Simple minds - Belfast child
TTITLE12=Mike and the mechanics - Help me
TTITLE13=Michael Bolton - A love so beautiful
TTITLE14=Bonnie Tyler - Limelight
TTITLE15=Tina Arena - Chains
TTITLE16=Nits - In the Dutch mountains
TTITLE17=Kurt Maloo - The captain of her heart
EXTD=
EXTT0=
EXTT1=
EXTT2=
EXTT3=
EXTT4=
EXTT5=
EXTT6=
EXTT7=
EXTT8=
EXTT9=
EXTT10=
EXTT11=
EXTT12=
EXTT13=
EXTT14=
EXTT15=
EXTT16=
EXTT17=
PLAYORDER=
